<svg width="15" height="15" viewBox="0 0 15 15" fill="none" xmlns="http://www.w3.org/2000/svg">
<path d="M8.68083 15H5.45298V8.27459H3.6748V5.1859H5.45293V3.4515C5.45293 1.85923 6.44912 0 9.25785 0C10.248 0 10.9749 0.0927955 11.0053 0.096794L11.3033 0.135532L11.2315 3.02601L10.9031 3.02299C10.9025 3.02299 10.1646 3.01598 9.35963 3.01598C8.76059 3.01598 8.68114 3.16382 8.68114 3.75186V5.18658H11.325L11.1785 8.27526H8.68145V15H8.68083ZM6.12005 14.3325H8.01298V7.60747H10.5407L10.6241 5.85339H8.01298V3.75118C8.01298 3.05701 8.17282 2.34782 9.35891 2.34782C9.8355 2.34782 10.2884 2.35016 10.5797 2.3525L10.6201 0.727564C10.3254 0.701185 9.83514 0.667484 9.25713 0.667484C6.94404 0.667484 6.11968 2.10553 6.11968 3.4515V5.85339H4.34161V7.60747H6.11974V14.3325H6.12005Z" fill="white"/>
</svg>
