<svg width="15" height="15" viewBox="0 0 15 15" fill="none" xmlns="http://www.w3.org/2000/svg">
<path d="M10.5349 0.882355H4.46499C2.48948 0.882355 0.882324 2.48951 0.882324 4.46503V10.5351C0.882324 12.5105 2.48948 14.1176 4.46499 14.1176H10.5351C12.5105 14.1176 14.1176 12.5105 14.1176 10.5351V4.46503C14.1176 2.48951 12.5105 0.882355 10.5349 0.882355ZM13.3417 10.5351C13.3417 12.0827 12.0826 13.3417 10.5349 13.3417H4.46499C2.91732 13.3417 1.65823 12.0827 1.65823 10.5351V4.46503C1.65823 2.91735 2.91732 1.65826 4.46499 1.65826H10.5351C12.0826 1.65826 13.3417 2.91735 13.3417 4.46503V10.5351Z" fill="white"/>
<path d="M7.49989 3.52941C5.31046 3.52941 3.5293 5.31057 3.5293 7.5C3.5293 9.68938 5.31046 11.4706 7.49989 11.4706C9.68927 11.4706 11.4705 9.68938 11.4705 7.5C11.4705 5.31057 9.68927 3.52941 7.49989 3.52941ZM7.49989 10.6193C5.77999 10.6193 4.3806 9.21997 4.3806 7.5C4.3806 5.7801 5.77999 4.38071 7.49989 4.38071C9.21986 4.38071 10.6192 5.7801 10.6192 7.5C10.6192 9.21997 9.21986 10.6193 7.49989 10.6193Z" fill="white"/>
<path d="M11.4707 2.64706C10.9841 2.64706 10.5884 3.04289 10.5884 3.52937C10.5884 4.01593 10.9841 4.41177 11.4707 4.41177C11.9573 4.41177 12.3531 4.01593 12.3531 3.52937C12.3531 3.04281 11.9573 2.64706 11.4707 2.64706ZM11.4707 3.77149C11.3372 3.77149 11.2286 3.66284 11.2286 3.52937C11.2286 3.39582 11.3372 3.28726 11.4707 3.28726C11.6042 3.28726 11.7128 3.39582 11.7128 3.52937C11.7128 3.66284 11.6042 3.77149 11.4707 3.77149Z" fill="white"/>
</svg>
