<svg width="15" height="15" viewBox="0 0 15 15" fill="none" xmlns="http://www.w3.org/2000/svg">
<path d="M11.287 3.57184L5.11798 7.37135C4.76888 7.58686 4.60367 8.01252 4.71614 8.4062L5.38317 10.75C5.44015 10.9498 5.61798 11.0826 5.82259 11.0826C5.83399 11.0826 5.84551 11.0822 5.85705 11.0814C6.07577 11.0655 6.24886 10.9025 6.27796 10.6854L6.45139 9.40032C6.47477 9.22738 6.55809 9.06653 6.6858 8.94768L11.7766 4.21549C11.9304 4.07284 11.9508 3.83926 11.824 3.67218C11.697 3.50495 11.4663 3.46171 11.287 3.57184ZM6.27875 8.51009C6.05 8.72302 5.90096 9.01077 5.85913 9.32029L5.77501 9.94368L5.29082 8.24235C5.25148 8.10454 5.30943 7.95551 5.4316 7.88009L9.9509 5.09668L6.27875 8.51009Z" fill="white"/>
<path d="M14.7559 1.09517C14.5632 0.931809 14.2973 0.886835 14.0617 0.977832L0.441805 6.232C0.172069 6.33603 -0.00136881 6.59 8.13912e-06 6.87902C0.00141439 7.1683 0.177401 7.42086 0.448719 7.52252L3.63007 8.70989L4.87106 12.7009C4.9392 12.9203 5.1112 13.0908 5.33111 13.1569C5.55089 13.223 5.78825 13.1757 5.96568 13.0306L7.81548 11.5226C7.9043 11.4502 8.03116 11.4466 8.12391 11.514L11.4604 13.9363C11.5804 14.0235 11.722 14.0684 11.8653 14.0684C11.9493 14.0684 12.0337 14.0531 12.1148 14.0216C12.3341 13.9369 12.4936 13.7489 12.5414 13.5189L14.9856 1.76176C15.0369 1.5142 14.9489 1.25879 14.7559 1.09517ZM14.4004 1.64032L11.9563 13.3974C11.9474 13.4399 11.9169 13.4576 11.8994 13.4643C11.8819 13.4711 11.8471 13.4786 11.8116 13.4528L8.47507 11.0304C8.32592 10.9221 8.15054 10.8684 7.9755 10.8684C7.78454 10.8684 7.59385 10.9324 7.43799 11.0593L5.58777 12.5677C5.55484 12.5946 5.52065 12.5899 5.50325 12.5846C5.48573 12.5793 5.45447 12.5644 5.44175 12.5235L4.15723 8.39243C4.12978 8.30416 4.06299 8.23355 3.97638 8.20122L0.658075 6.96274C0.608387 6.94414 0.597811 6.90538 0.597664 6.87612C0.597518 6.84711 0.607713 6.80853 0.656932 6.78955L14.2768 1.53541C14.2769 1.53538 14.277 1.53536 14.2771 1.53532C14.3213 1.51825 14.354 1.53787 14.3696 1.55105C14.3853 1.56438 14.4101 1.59368 14.4004 1.64032Z" fill="white"/>
</svg>
