<svg width="15" height="15" viewBox="0 0 15 15" fill="none" xmlns="http://www.w3.org/2000/svg">
<g clip-path="url(#clip0)">
<path d="M14.914 2.76497C14.8377 2.6886 14.7104 2.66314 14.6085 2.6886L14.0993 2.86684C14.4048 2.5104 14.6085 2.1285 14.7358 1.77206C14.7867 1.64476 14.7613 1.54293 14.6849 1.46653C14.6085 1.39016 14.4812 1.3647 14.3793 1.4156C13.6665 1.72113 13.0554 1.97573 12.5462 2.12847C12.5462 2.15394 12.5208 2.12847 12.4953 2.12847C12.0879 1.89934 11.095 1.39013 10.3821 1.39013C8.57446 1.4156 7.12325 2.9432 7.12325 4.80178V4.90361C4.47541 4.39441 3.0242 3.63061 1.44566 1.9757L1.19112 1.7211L1.03836 2.02664C0.172718 3.68154 0.783754 5.18368 1.77669 6.20208C1.31842 6.12571 1.01289 5.97295 0.732823 5.74381C0.630988 5.66744 0.503688 5.64198 0.376387 5.71835C0.274553 5.76928 0.223621 5.92202 0.249087 6.04932C0.605522 7.24592 1.49662 8.21342 2.4641 8.79899C2.00583 8.79899 1.62393 8.74806 1.24202 8.49346C1.14019 8.44253 0.987423 8.44253 0.885589 8.51893C0.783754 8.59532 0.732823 8.7226 0.783754 8.8499C1.24202 10.1484 2.13313 10.8358 3.5589 11.014C2.82056 11.4468 1.85309 11.8033 0.350951 11.8287C0.198184 11.8287 0.0708839 11.9306 0.0199814 12.0579C-0.0309505 12.2106 0.0199814 12.3379 0.121816 12.4398C1.03838 13.1781 3.07516 13.6109 5.5957 13.6109C10.0767 13.6109 13.7429 9.61373 13.7429 4.69994V4.62358C14.303 4.34351 14.7613 3.80884 14.9904 3.0705C15.0159 2.96864 14.9904 2.84134 14.914 2.76497ZM13.3864 4.21618L13.2337 4.26711V4.69994C13.2337 9.33366 9.79656 13.1017 5.59567 13.1017C3.2788 13.1017 1.72576 12.7198 0.885589 12.3125C2.64233 12.1852 3.66073 11.625 4.45 11.014L5.0865 10.5557H4.3227C2.87149 10.5557 1.98039 10.1484 1.47119 9.1809C1.92946 9.33366 2.41319 9.33366 2.94786 9.3082C3.15153 9.28273 3.35523 9.28273 3.5589 9.28273L3.63527 8.77353C2.66779 8.49346 1.52209 7.62782 0.961957 6.45668C1.47116 6.68582 2.03126 6.73675 2.54046 6.73675H3.32973L2.69326 6.27845C2.15859 5.89655 0.580086 4.54718 1.34389 2.61221C2.97333 4.21618 4.5264 4.95452 7.32698 5.46372L7.63251 5.51465V4.80178C7.63251 3.22327 8.85458 1.9248 10.3822 1.89934C10.9678 1.87387 11.9353 2.40854 12.2153 2.5613C12.3681 2.63767 12.5208 2.66314 12.6736 2.61224C13.0555 2.48493 13.5137 2.3067 14.0229 2.10303C13.7938 2.48493 13.4883 2.84137 13.0809 3.17237C12.9791 3.24874 12.9536 3.4015 13.0046 3.5288C13.0555 3.6561 13.2082 3.70704 13.3355 3.6561L14.3285 3.32513C14.1502 3.65608 13.8702 4.03798 13.3864 4.21618Z" fill="white"/>
</g>
<defs>
<clipPath id="clip0">
<rect width="15" height="15" fill="white"/>
</clipPath>
</defs>
</svg>
