<svg width="15" height="15" viewBox="0 0 15 15" fill="none" xmlns="http://www.w3.org/2000/svg">
<path d="M7.49997 0C4.78947 0 2.58435 2.20368 2.58435 4.91241C2.58435 7.51567 7.05159 14.5597 7.24176 14.8583C7.29796 14.9466 7.39534 15 7.49997 15C7.6046 15 7.70198 14.9466 7.75815 14.8583C7.94832 14.5597 12.4155 7.51564 12.4155 4.91241C12.4155 2.20368 10.2104 0 7.49997 0ZM7.49997 14.1161C7.09567 13.4622 6.2752 12.1084 5.46276 10.6083C3.98024 7.87105 3.19663 5.90146 3.19663 4.91241C3.19659 2.54128 5.12709 0.612245 7.49997 0.612245C9.87284 0.612245 11.8033 2.54128 11.8033 4.91241C11.8033 5.90146 11.0196 7.87105 9.53715 10.6083C8.7247 12.1083 7.90423 13.4622 7.49997 14.1161Z" fill="black"/>
<path d="M7.49996 2.32872C6.2178 2.32872 5.17468 3.34349 5.17468 4.59078C5.17468 5.83805 6.2178 6.85275 7.49996 6.85275C8.78212 6.85275 9.82523 5.83805 9.82523 4.59078C9.82523 3.34349 8.78212 2.32872 7.49996 2.32872ZM7.49996 6.24048C6.55542 6.24048 5.78693 5.50042 5.78693 4.59075C5.78693 3.68105 6.55542 2.94093 7.49996 2.94093C8.4445 2.94093 9.21299 3.68105 9.21299 4.59075C9.21299 5.50042 8.44453 6.24048 7.49996 6.24048Z" fill="black"/>
</svg>
