<svg width="30" height="30" viewBox="0 0 30 30" fill="none" xmlns="http://www.w3.org/2000/svg">
<g clip-path="url(#clip0)">
<path d="M29.9338 2.60766L29.8772 2.07C29.764 0.966387 28.8585 0.11745 27.7266 0.0325568L27.2738 0.00425894C25.9155 -0.0523368 24.5855 0.457025 23.6234 1.41915L19.0957 5.91852L4.26765 5.89022C3.02255 5.89022 1.80574 6.39958 0.900206 7.30511L0.277653 7.92767C0.0795677 8.12575 -0.00532595 8.46533 0.0512698 8.74831C0.136163 9.03128 0.334249 9.25767 0.617227 9.34256L12.4174 12.5685L9.67255 15.3134L4.69212 15.4832C4.18276 15.4832 3.7017 15.6813 3.33382 16.0775L2.85276 16.5585C2.65467 16.7566 2.56978 17.0679 2.62638 17.3509C2.71127 17.6338 2.90936 17.8319 3.16404 17.9451L9.50276 20.3504L12.0496 26.9155C12.1628 27.1985 12.4174 27.3966 12.7004 27.4249C12.9834 27.4532 13.2381 27.3683 13.4362 27.1419L13.9455 26.6326C14.2851 26.293 14.4832 25.8402 14.5398 25.2743L14.7096 20.2655L17.4828 17.5489L20.6804 29.3775C20.7653 29.6604 20.9917 29.8868 21.2747 29.9717C21.3596 30 21.4162 30 21.5011 30C21.7274 30 21.9538 29.9151 22.1236 29.7453L22.7462 29.1228C23.6517 28.2172 24.1611 27.0004 24.1611 25.727V10.8989L28.5472 6.48447C29.5943 5.46575 30.1036 4.02256 29.9338 2.60766ZM27.7549 5.69213L23.1706 10.2764C23.0574 10.3896 23.0009 10.5311 23.0009 10.6726V25.727C23.0009 26.7175 22.6047 27.623 21.9255 28.3304L21.6426 28.6134L18.2751 16.3604C18.2185 16.1623 18.077 16.0209 17.8789 15.9643C17.8223 15.9643 17.794 15.936 17.7374 15.936C17.596 15.936 17.4545 15.9926 17.3413 16.1058L13.7191 19.6713C13.606 19.7845 13.5494 19.8977 13.5494 20.0675L13.3796 25.2743C13.3796 25.4441 13.323 25.6987 13.1249 25.8685L12.9268 26.0666L10.4649 19.6996C10.4083 19.5581 10.2951 19.4449 10.1253 19.3883L3.98468 17.0396L4.15446 16.8698C4.23936 16.7849 4.46574 16.6151 4.74872 16.6151L9.98383 16.4453C10.1253 16.4453 10.2668 16.3887 10.3517 16.2755L13.9455 12.6817C14.087 12.5402 14.1436 12.3421 14.087 12.1441C14.0304 11.946 13.8889 11.8045 13.6908 11.7479L1.40957 8.38043L1.69255 8.09745C2.3717 7.4183 3.30553 7.02213 4.26765 7.02213L19.3221 7.05043C19.4636 7.05043 19.6051 6.99384 19.7183 6.88064L24.4157 2.21149C25.1515 1.47575 26.1702 1.07958 27.2172 1.13617L27.67 1.16447C28.236 1.19277 28.6887 1.64554 28.7453 2.1832L28.8019 2.72086C28.9151 3.82447 28.5472 4.89979 27.7549 5.69213Z" fill="#0094FF"/>
</g>
<defs>
<clipPath id="clip0">
<rect width="30" height="30" fill="white"/>
</clipPath>
</defs>
</svg>
