<svg width="50" height="50" viewBox="0 0 50 50" fill="none" xmlns="http://www.w3.org/2000/svg">
<path d="M20.9678 30.6452H29.0323V17.742H20.9678V30.6452ZM22.5807 19.3549H27.4194V29.0323H22.5807V19.3549Z" fill="white"/>
<path d="M22.5807 33.0645H20.9678V34.6774H22.5807V33.0645Z" fill="white"/>
<path d="M20.9679 14.5161H19.355V16.129H20.9679V14.5161Z" fill="white"/>
<path d="M19.3551 11.2903H17.7422V12.9032H19.3551V11.2903Z" fill="white"/>
<path d="M20.9679 40.3226H19.355V41.9355H20.9679V40.3226Z" fill="white"/>
<path d="M29.0323 41.9355H27.4194V43.5485H29.0323V41.9355Z" fill="white"/>
<path d="M9.67758 33.871H4.83887V35.4839H9.67758V33.871Z" fill="white"/>
<path d="M8.06456 37.0967H6.45166V38.7096H8.06456V37.0967Z" fill="white"/>
<path d="M45.1614 33.871H41.9355V35.4839H45.1614V33.871Z" fill="white"/>
<path d="M41.9357 37.0967H40.3228V38.7096H41.9357V37.0967Z" fill="white"/>
<path d="M38.7096 29.0323H37.0967V30.6452H38.7096V29.0323Z" fill="white"/>
<path d="M45.1612 40.3226H43.5483V41.9355H45.1612V40.3226Z" fill="white"/>
<path d="M43.5484 12.9032V17.7419H40.3226V12.9032H35.4839V9.67742H37.9032V4.83871H36.2903V0H29.8387V4.83871H28.2258V0H21.7742V4.83871H20.1613V0H13.7097V4.83871H12.0968V9.67742H14.5161V12.9032H9.67742V17.7419H6.45161V12.9032H0V17.7419V18.5484V22.5806H1.6129V50H14.5161H15.3226H34.6774H35.4839H48.3871V22.5806H50V18.5484V17.7419V12.9032H43.5484ZM1.6129 14.5161H4.83871V17.7419H1.6129V14.5161ZM14.5161 29.0323H11.2903V30.6452H14.5161V32.2581H12.9032V33.871H14.5161V41.9355H11.2903V43.5484H14.5161V45.1613H12.9032V46.7742H14.5161V48.3871H3.22581V45.1613H4.83871V43.5484H3.22581V41.9355H6.45161V40.3226H3.22581V32.2581H4.83871V30.6452H3.22581V29.0323H6.45161V27.4194H3.22581V22.5806H14.5161V29.0323ZM14.5161 20.9677H1.6129V19.3548H14.5161V20.9677ZM14.5161 17.7419H11.2903V14.5161H14.5161V17.7419ZM38.7097 14.5161V17.7419H35.4839V14.5161H38.7097ZM31.4516 1.6129H34.6774V4.83871H31.4516V1.6129ZM23.3871 1.6129H26.6129V4.83871H23.3871V1.6129ZM15.3226 1.6129H18.5484V4.83871H15.3226V1.6129ZM33.871 11.2903H30.6452V12.9032H33.871V14.5161H29.0323V16.129H33.871V19.3548H30.6452V20.9677H33.871V33.871H29.0323V35.4839H33.871V37.0968H32.2581V38.7097H33.871V40.3226V41.9355H30.6452V43.5484H33.871V45.1613H30.6452V46.7742H33.871V48.3871H16.129V45.1613H19.3548V43.5484H16.129V41.9355H17.7419V40.3226H16.129V37.9032H19.3548V36.2903H16.129V19.3548H19.3548V17.7419H16.129V16.129H17.7419V14.5161H16.129V9.67742H33.871V11.2903ZM14.5161 8.06452H13.7097V6.45161H36.2903V8.06452H35.4839H14.5161ZM46.7742 25.8065H43.5484V27.4194H46.7742V29.0323H45.1613V30.6452H46.7742V45.1613H45.1613V46.7742H46.7742V48.3871H35.4839V45.1613H39.5161V43.5484H35.4839V41.9355H37.0968V40.3226H35.4839V33.871H38.7097V32.2581H35.4839V22.5806H46.7742V25.8065ZM48.3871 20.9677H35.4839V19.3548H48.3871V20.9677ZM48.3871 17.7419H45.1613V14.5161H48.3871V17.7419Z" fill="white"/>
</svg>
