<svg width="50" height="50" viewBox="0 0 50 50" fill="none" xmlns="http://www.w3.org/2000/svg">
<g clip-path="url(#clip0)">
<path d="M32.1307 6.1784C31.6282 2.65633 28.5624 0 24.9999 0C22.7087 0 20.5328 1.10558 19.18 2.95848C18.9036 3.33636 18.9863 3.86644 19.3642 4.14277C19.7408 4.41811 20.2721 4.33643 20.548 3.95805C21.5835 2.54113 23.2475 1.695 24.9996 1.695C27.7242 1.695 30.0682 3.72541 30.4526 6.41749C30.5131 6.84031 30.8759 7.14545 31.2907 7.14545C31.3302 7.14545 31.3709 7.14247 31.4114 7.137C31.8747 7.07071 32.1967 6.64144 32.1307 6.1784Z" fill="white"/>
<path d="M44.3705 15.6653L41.8282 11.4279C41.6752 11.1725 41.3994 11.0165 41.1015 11.0165H38.6651C38.1973 11.0165 37.8177 11.3962 37.8177 11.8639C37.8177 12.3317 38.1973 12.7113 38.6651 12.7113H40.6218L42.1472 15.2537H7.8523L9.37772 12.7113H10.2752C10.743 12.7113 11.1226 12.3317 11.1226 11.8639C11.1226 11.3962 10.743 11.0165 10.2752 11.0165H8.89804C8.60011 11.0165 8.32427 11.1725 8.17133 11.4279L5.62897 15.6653C5.4718 15.9275 5.46808 16.2535 5.61829 16.5191C5.7685 16.7848 6.05004 16.9492 6.35568 16.9492H43.6438C43.9495 16.9492 44.2308 16.7848 44.3812 16.5191C44.5317 16.2535 44.5277 15.927 44.3705 15.6653Z" fill="white"/>
<path d="M40.1459 7.85126C40.0272 7.65984 39.8378 7.52403 39.6188 7.47289L28.0662 4.77087C27.8475 4.71948 27.6171 4.75771 27.4259 4.87589C27.2352 4.99457 27.0992 5.18401 27.048 5.40299L26.1768 9.12716C26.0701 9.58276 26.3531 10.0386 26.8089 10.1449C27.2645 10.2516 27.7209 9.96858 27.8271 9.51274L28.5054 6.61409L38.4075 8.93028L36.8515 15.5829C36.7448 16.0385 37.0278 16.4943 37.4836 16.6006C37.5489 16.6157 37.6137 16.6229 37.6778 16.6229C38.0626 16.6229 38.411 16.3593 38.5016 15.9687L40.2507 8.49108C40.3023 8.27234 40.2646 8.04194 40.1459 7.85126Z" fill="white"/>
<path d="M25.4479 9.85481L24.6757 3.32386C24.6494 3.10066 24.5354 2.89682 24.3587 2.75779C24.1819 2.61875 23.9587 2.55519 23.7345 2.58151L9.56028 4.25689C9.09575 4.31201 8.76356 4.73309 8.81843 5.19811L10.1057 16.0908C10.1569 16.5221 10.5226 16.8391 10.9464 16.8391C10.9794 16.8391 11.0135 16.8369 11.0472 16.8332C11.5115 16.778 11.8437 16.357 11.7891 15.8919L10.6011 5.84016L23.0922 4.3639L23.7645 10.0532C23.8196 10.518 24.2387 10.8482 24.7058 10.7955C25.1703 10.7409 25.5025 10.3196 25.4479 9.85481Z" fill="white"/>
<path d="M32.1499 15.7798L30.4678 8.78475C30.4152 8.56651 30.2779 8.37757 30.0865 8.26014C29.895 8.1437 29.6654 8.1072 29.4456 8.15934L15.7936 11.4426C15.3385 11.5518 15.0584 12.0096 15.1677 12.4647L16.0083 15.961C16.1176 16.4166 16.5754 16.6969 17.0302 16.5869C17.4853 16.4777 17.7654 16.0198 17.6562 15.5647L17.0134 12.8923L29.0176 10.0058L30.5016 16.1765C30.5947 16.5651 30.9423 16.8257 31.3249 16.8257C31.3907 16.8257 31.4572 16.8181 31.524 16.8019C31.9791 16.6924 32.2591 16.2348 32.1499 15.7798Z" fill="white"/>
<path d="M44.4905 16.0586C44.4672 15.6082 44.0953 15.2546 43.6439 15.2546H6.35573C5.90436 15.2546 5.53244 15.6079 5.5091 16.0586L3.8141 49.1094C3.80219 49.3413 3.88611 49.5682 4.046 49.7365C4.20614 49.9046 4.4281 50.0002 4.66048 50.0002H45.3384C45.5705 50.0002 45.7927 49.9048 45.9536 49.7365C46.1133 49.5682 46.1972 49.3415 46.1855 49.1094L44.4905 16.0586ZM5.5523 48.3052L7.1604 16.9494H42.8382L44.4463 48.3052H5.5523Z" fill="white"/>
<path d="M31.3554 18.6438C29.9533 18.6438 28.813 19.7841 28.813 21.1862C28.813 22.5882 29.9533 23.7285 31.3554 23.7285C32.7574 23.7285 33.8977 22.5882 33.8977 21.1862C33.8977 19.7841 32.7574 18.6438 31.3554 18.6438ZM31.3554 22.0338C30.8878 22.0338 30.508 21.6537 30.508 21.1864C30.508 20.7192 30.8881 20.339 31.3554 20.339C31.8226 20.339 32.2027 20.7192 32.2027 21.1864C32.2027 21.6537 31.8226 22.0338 31.3554 22.0338Z" fill="white"/>
<path d="M18.6434 18.6438C17.2414 18.6438 16.1011 19.7841 16.1011 21.1862C16.1011 22.5882 17.2414 23.7285 18.6434 23.7285C20.0455 23.7285 21.1858 22.5882 21.1858 21.1862C21.1858 19.7841 20.0455 18.6438 18.6434 18.6438ZM18.6434 22.0338C18.1762 22.0338 17.7961 21.6537 17.7961 21.1864C17.7961 20.7192 18.1762 20.339 18.6434 20.339C19.1107 20.339 19.4908 20.7192 19.4908 21.1864C19.4908 21.6537 19.1107 22.0338 18.6434 22.0338Z" fill="white"/>
<path d="M31.3556 21.1862H31.2903C30.8226 21.1862 30.4429 21.5658 30.4429 22.0336C30.4429 22.1493 30.4658 22.2598 30.5082 22.3603V26.6945C30.5082 29.7317 28.0371 32.2031 24.9997 32.2031C21.9622 32.2031 19.4911 29.732 19.4911 26.6945V22.0338C19.4911 21.5661 19.1115 21.1865 18.6438 21.1865C18.176 21.1865 17.7964 21.5661 17.7964 22.0338V26.6948C17.7964 30.6667 21.0277 33.8981 24.9997 33.8981C28.9716 33.8981 32.203 30.6667 32.203 26.6948V22.0338C32.203 21.5661 31.8234 21.1862 31.3556 21.1862Z" fill="white"/>
</g>
<defs>
<clipPath id="clip0">
<rect width="50" height="50" fill="white"/>
</clipPath>
</defs>
</svg>
