<svg width="50" height="50" viewBox="0 0 50 50" fill="none" xmlns="http://www.w3.org/2000/svg">
<path d="M34.5385 4.21138C34.5385 1.88926 32.6492 0 30.3271 0C28.005 0 26.1157 1.88926 26.1157 4.21138C26.1157 4.60319 26.2046 5.98309 26.339 8.0717C26.6001 12.1277 26.9987 18.321 27.16 23.539C26.7703 23.5917 26.4696 23.9247 26.4696 24.3288C26.4696 24.7473 26.7919 25.0899 27.2018 25.1234C27.2207 25.9945 27.2315 26.8272 27.2315 27.6023C27.2315 28.9442 27.1999 30.3084 27.1475 31.6577C26.979 36 26.5949 40.1795 26.3408 42.9403C26.2054 44.4129 26.1158 45.3857 26.1158 45.7885C26.1158 48.1107 28.0051 49.9999 30.3272 49.9999C32.6493 49.9999 34.5386 48.1106 34.5386 45.7885C34.5386 45.3857 34.4491 44.4129 34.3136 42.9403C34.0596 40.1796 33.6754 36.0004 33.5071 31.6633C33.5072 31.6592 33.5068 31.6564 33.5067 31.6534C33.4545 30.3056 33.423 28.9429 33.423 27.6025C33.423 26.8273 33.4337 25.9946 33.4526 25.1235C33.8625 25.0901 34.1849 24.7474 34.1849 24.3289C34.1849 23.9248 33.8841 23.5917 33.4943 23.5392C33.6556 18.3211 34.0542 12.1278 34.3153 8.07181C34.4497 5.98309 34.5385 4.6033 34.5385 4.21138ZM30.3271 1.59574C31.7695 1.59574 32.9427 2.76915 32.9427 4.21138C32.9427 4.55192 32.8456 6.05989 32.7227 7.96926C32.4603 12.0461 32.0595 18.2744 31.8981 23.5311H31.1249V21.1374C31.1249 20.6968 30.7676 20.3396 30.327 20.3396C29.8864 20.3396 29.5291 20.6968 29.5291 21.1374V23.5311H28.7559C28.5946 18.2744 28.1937 12.0462 27.9314 7.96926C27.8085 6.06 27.7114 4.55192 27.7114 4.21138C27.7114 2.76915 28.8848 1.59574 30.3271 1.59574ZM31.8818 30.8643H31.125V27.5205C31.125 27.0799 30.7677 26.7227 30.3271 26.7227C29.8865 26.7227 29.5292 27.0799 29.5292 27.5205V30.8643H28.7723C28.807 29.7763 28.827 28.6827 28.827 27.6025C28.827 26.8272 28.8164 25.9957 28.7977 25.1268H30.326C30.3281 25.1268 31.8564 25.1268 31.8564 25.1268C31.8377 25.9956 31.8271 26.8272 31.8271 27.6025C31.8271 28.6827 31.8471 29.7763 31.8818 30.8643ZM30.3271 48.4043C28.8848 48.4043 27.7115 47.2309 27.7115 45.7886C27.7115 45.459 27.8077 44.4121 27.9298 43.0866C28.171 40.4638 28.5292 36.5706 28.7115 32.46H31.9429C32.1251 36.5706 32.4833 40.4638 32.7246 43.0866C32.8465 44.412 32.9429 45.459 32.9429 45.7886C32.9427 47.2309 31.7693 48.4043 30.3271 48.4043Z" fill="white"/>
<path d="M42.8793 10.2675H42.2742V5.64282C42.5677 5.52506 42.7752 5.23825 42.7752 4.90261C42.7752 4.46197 42.418 4.10474 41.9774 4.10474H38.4698C38.0292 4.10474 37.6719 4.46197 37.6719 4.90261C37.6719 5.23825 37.8795 5.52495 38.173 5.64282V10.2675H37.5679C37.1273 10.2675 36.77 10.6247 36.77 11.0654C36.77 11.506 37.1273 11.8632 37.5679 11.8632H39.4257V41.3096H38.4698C38.0292 41.3096 37.6719 41.6669 37.6719 42.1075C37.6719 42.5481 38.0292 42.9054 38.4698 42.9054H39.4257V45.0973C39.4257 45.5379 39.7829 45.8952 40.2235 45.8952C40.6642 45.8952 41.0214 45.5379 41.0214 45.0973V42.9054H41.9774C42.418 42.9054 42.7752 42.5481 42.7752 42.1075C42.7752 41.6669 42.418 41.3096 41.9774 41.3096H41.0214V11.8632H42.8793C43.3199 11.8632 43.6771 11.506 43.6771 11.0654C43.6771 10.6247 43.3199 10.2675 42.8793 10.2675ZM39.7687 5.70048H40.6784V10.2675H39.7687V5.70048Z" fill="white"/>
<path d="M23.8843 4.21138C23.8843 1.88926 21.995 0 19.6728 0C17.3506 0 15.4614 1.88926 15.4614 4.21138C15.4614 4.60319 15.5503 5.98309 15.6847 8.0717C15.9458 12.1277 16.3444 18.321 16.5057 23.539C16.1159 23.5916 15.8151 23.9247 15.8151 24.3288C15.8151 24.7473 16.1375 25.0899 16.5474 25.1234C16.5663 25.9945 16.5771 26.8272 16.5771 27.6023C16.5771 28.9428 16.5455 30.3055 16.4933 31.6533C16.4933 31.6563 16.4929 31.659 16.4929 31.662C16.3246 36.0004 15.9405 40.1795 15.6864 42.9403C15.551 44.4129 15.4614 45.3857 15.4614 45.7885C15.4614 48.1107 17.3507 49.9999 19.6728 49.9999C21.9949 49.9999 23.8842 48.1106 23.8842 45.7885C23.8842 45.3857 23.7947 44.4129 23.6592 42.9403C23.4053 40.1795 23.021 36 22.8527 31.6627C22.8003 30.3084 22.7686 28.9442 22.7686 27.6023C22.7686 26.8272 22.7793 25.9945 22.7982 25.1234C23.208 25.0899 23.5305 24.7473 23.5305 24.3288C23.5305 23.9247 23.2297 23.5916 22.84 23.539C23.0012 18.321 23.3999 12.1277 23.661 8.0717C23.7955 5.98309 23.8843 4.6033 23.8843 4.21138ZM19.6728 1.59574C21.1151 1.59574 22.2884 2.76915 22.2884 4.21138C22.2884 4.55192 22.1913 6.05989 22.0684 7.96926C21.806 12.0461 21.4053 18.2744 21.2439 23.5311H20.4707V21.1374C20.4707 20.6968 20.1134 20.3396 19.6728 20.3396C19.2322 20.3396 18.8749 20.6968 18.8749 21.1374V23.5311H18.1017C17.9404 18.2744 17.5395 12.0462 17.2771 7.96926C17.1542 6.06 17.0571 4.55192 17.0571 4.21138C17.0572 2.76915 18.2306 1.59574 19.6728 1.59574ZM21.2276 30.8643H20.4707V27.5205C20.4707 27.0799 20.1134 26.7227 19.6728 26.7227C19.2322 26.7227 18.8749 27.0799 18.8749 27.5205V30.8643H18.1181C18.1528 29.7763 18.1728 28.6827 18.1728 27.6025C18.1728 26.8272 18.1622 25.9957 18.1436 25.1268H19.6719C19.6739 25.1268 21.2023 25.1268 21.2023 25.1268C21.1837 25.9956 21.173 26.8272 21.173 27.6025C21.1729 28.6827 21.1929 29.7763 21.2276 30.8643ZM19.6728 48.4043C18.2305 48.4043 17.0572 47.2309 17.0572 45.7886C17.0572 45.459 17.1534 44.4121 17.2755 43.0866C17.5167 40.4638 17.8749 36.5706 18.0572 32.46H21.2886C21.4708 36.5706 21.829 40.4638 22.0703 43.0866C22.1922 44.412 22.2886 45.459 22.2886 45.7886C22.2886 47.2309 21.1151 48.4043 19.6728 48.4043Z" fill="white"/>
<path d="M12.4321 10.2675H11.827V5.64282C12.1205 5.52495 12.328 5.23825 12.328 4.90261C12.328 4.46197 11.9708 4.10474 11.5302 4.10474H8.02253C7.5819 4.10474 7.22467 4.46197 7.22467 4.90261C7.22467 5.23825 7.43222 5.52506 7.72573 5.64282V10.2675H7.12062C6.67999 10.2675 6.32275 10.6247 6.32275 11.0654C6.32275 11.506 6.67999 11.8632 7.12062 11.8632H8.97849V41.3096H8.02253C7.5819 41.3096 7.22467 41.6669 7.22467 42.1075C7.22467 42.5481 7.5819 42.9054 8.02253 42.9054H8.97849V45.0973C8.97849 45.5379 9.33572 45.8952 9.77636 45.8952C10.217 45.8952 10.5742 45.5379 10.5742 45.0973V42.9054H11.5301C11.9707 42.9054 12.3279 42.5481 12.3279 42.1075C12.3279 41.6669 11.9707 41.3096 11.5301 41.3096H10.5742V11.8632H12.4321C12.8727 11.8632 13.23 11.506 13.23 11.0654C13.23 10.6247 12.8727 10.2675 12.4321 10.2675ZM9.32157 5.70048H10.2312V10.2675H9.32157V5.70048Z" fill="white"/>
</svg>
