<svg width="50" height="50" viewBox="0 0 50 50" fill="none" xmlns="http://www.w3.org/2000/svg">
<g clip-path="url(#clip0)">
<path d="M20.5227 47.7405C20.5045 47.7405 20.4864 47.7397 20.4678 47.7381C11.4945 46.9004 7.99815 42.4998 6.86837 40.5292C5.7861 42.0804 5.70653 42.09 5.28089 41.9089C5.02789 41.8015 4.88421 41.5222 4.93828 41.2526L5.43539 41.2978L5.42689 41.2886L4.94987 41.2013C4.95875 41.1182 4.93365 40.6431 4.22449 38.0947C3.5725 35.7524 3.47362 33.0954 3.46899 31.8011C2.29749 32.929 0.67602 33.0027 0.601087 33.0058C0.35775 33.0105 0.132953 32.8695 0.0417979 32.6427C-0.049357 32.416 0.0116704 32.1561 0.194753 31.9938C0.789963 31.4647 1.15227 28.4037 1.14647 25.8706C1.36972 19.4114 3.92476 13.4535 8.3423 9.07264C12.7722 4.67905 18.6872 2.25958 24.9974 2.25958C25.3176 2.25958 25.5768 2.51876 25.5768 2.83896V18.0958C25.5768 18.416 25.3176 18.6752 24.9974 18.6752C24.6772 18.6752 24.418 18.416 24.418 18.0958V3.42528C18.6335 3.5682 13.2338 5.85286 9.15845 9.89496C4.95142 14.0672 2.51727 19.7474 2.30483 25.8892C2.30677 26.6192 2.27471 29.6953 1.66675 31.5863C2.08544 31.4203 2.54469 31.1507 2.89541 30.7127C3.01013 30.5786 3.38131 30.1951 3.87378 30.253C4.04489 30.2727 4.36277 30.3658 4.57212 30.7675C4.61847 30.8567 4.64087 30.9568 4.63701 31.0572C4.63546 31.0943 4.50684 34.7887 5.34037 37.7841C5.59954 38.7157 5.77529 39.3944 5.89271 39.8961C6.08235 39.6277 6.28591 39.3368 6.47865 39.0583C6.60225 38.8799 6.81584 38.7868 7.0306 38.8135C7.24574 38.8417 7.42728 38.988 7.50066 39.1924C7.50568 39.2067 8.10707 40.8069 10.002 42.506C11.7575 44.08 15.0175 46.0653 20.576 46.5844C20.8946 46.6142 21.1287 46.8965 21.099 47.2152C21.0708 47.5153 20.8182 47.7405 20.5227 47.7405Z" fill="white"/>
<path d="M5.55083 14.0159C5.51954 14.0159 5.48826 14.0136 5.45658 14.0082C4.74511 13.8919 4.06647 13.6459 3.43959 13.277C0.726573 11.6802 -0.091503 8.20632 1.57825 5.36854C3.22947 2.56476 6.64739 1.61922 9.36118 3.21559C10.7366 4.02555 11.6999 5.3249 12.0738 6.8753C12.1487 7.18623 11.9576 7.49948 11.6466 7.57441C11.3357 7.65128 11.0224 7.45815 10.9475 7.14722C10.6478 5.90504 9.87528 4.86333 8.77331 4.21443C6.58443 2.92629 3.92047 3.67523 2.57709 5.95641C1.2372 8.23413 1.87412 11.0113 4.02746 12.2789C4.53036 12.5748 5.07381 12.7718 5.64353 12.8649C5.9591 12.9162 6.17346 13.214 6.12209 13.53C6.07574 13.8143 5.8297 14.0159 5.55083 14.0159Z" fill="white"/>
<path d="M6.91743 11.4361C6.23261 11.4361 5.58409 11.1785 5.08429 10.7057C4.56594 10.2152 4.2693 9.55235 4.2496 8.83895C4.20827 7.36695 5.37282 6.13559 6.8452 6.09426C8.32222 6.05834 9.54895 7.21786 9.59066 8.69024C9.59954 9.01006 9.34771 9.27657 9.02751 9.28584C8.72314 9.29279 8.4408 9.04289 8.43191 8.72269C8.40835 7.88916 7.7216 7.2364 6.87726 7.25262C6.04373 7.27618 5.3844 7.97336 5.40758 8.80689C5.41878 9.21091 5.58641 9.58634 5.88035 9.86367C6.17351 10.1414 6.55706 10.2839 6.96146 10.2766C7.27741 10.263 7.54779 10.5195 7.55706 10.8397C7.56594 11.1595 7.31411 11.426 6.99391 11.4353C6.9688 11.4357 6.94331 11.4361 6.91743 11.4361Z" fill="white"/>
<path d="M15.9272 25.37C14.5073 25.37 13.3521 24.2148 13.3521 22.7949C13.3521 22.0637 13.6649 21.3642 14.2099 20.876C14.6827 20.4527 15.2926 20.2198 15.9272 20.2198C17.347 20.2198 18.5023 21.3751 18.5023 22.7949C18.5023 24.2148 17.347 25.37 15.9272 25.37ZM15.9272 21.3785C15.578 21.3785 15.2427 21.5068 14.9828 21.7393C14.6827 22.0077 14.5108 22.3924 14.5108 22.7949C14.5108 23.5759 15.1462 24.2113 15.9272 24.2113C16.7082 24.2113 17.3436 23.5759 17.3436 22.7949C17.3436 22.0139 16.7082 21.3785 15.9272 21.3785Z" fill="white"/>
<path d="M18.341 26.3357C18.1792 26.3357 18.0185 26.2685 17.9038 26.1368L16.7358 24.7946C16.5256 24.5532 16.5508 24.1874 16.7922 23.9773C17.0336 23.7667 17.3993 23.7922 17.6095 24.0336L18.7775 25.3759C18.9876 25.6173 18.9625 25.983 18.7211 26.1932C18.6114 26.289 18.4758 26.3357 18.341 26.3357Z" fill="white"/>
<path d="M14.5097 21.9332C14.3479 21.9332 14.1872 21.866 14.0725 21.7339L12.7218 20.1811C12.512 19.9397 12.5371 19.574 12.7785 19.3638C13.0196 19.1537 13.3857 19.1788 13.5959 19.4206L14.9466 20.9733C15.1563 21.2147 15.1312 21.5805 14.8898 21.7906C14.7801 21.8864 14.6445 21.9332 14.5097 21.9332Z" fill="white"/>
<path d="M14.5756 38.3419C14.5292 38.3419 14.4817 38.3361 14.4346 38.3245C14.0711 38.2337 13.5825 38.1433 13.5779 38.1426C13.5532 38.1379 13.5288 38.1321 13.5049 38.1244C6.45311 35.8494 4.74666 29.1391 4.67752 28.8544C2.57439 20.1912 8.45118 16.479 8.51066 16.4427C8.78413 16.2758 9.14025 16.3616 9.30711 16.6343C9.47397 16.907 9.38861 17.2627 9.11669 17.4303C8.89962 17.5651 3.90657 20.7683 5.80305 28.581C5.8185 28.6435 7.4338 34.9274 13.8255 37.0101C13.9537 37.034 14.3739 37.1148 14.7154 37.2005C15.0259 37.2781 15.2144 37.5925 15.1368 37.9031C15.0711 38.1661 14.8351 38.3419 14.5756 38.3419Z" fill="white"/>
<path d="M12.6775 34.7316C12.5945 34.7316 12.5099 34.7138 12.4299 34.6756C6.44924 31.8444 6.68485 25.0498 6.68794 24.9815C6.70262 24.662 6.96913 24.4137 7.29281 24.4288C7.61262 24.4434 7.85982 24.7138 7.84553 25.0332C7.8351 25.287 7.65395 31.1329 12.9255 33.6281C13.2148 33.7648 13.3384 34.1105 13.2013 34.3998C13.1028 34.6087 12.8946 34.7316 12.6775 34.7316Z" fill="white"/>
<path d="M13.2209 32.1885C13.153 32.1885 13.0834 32.1765 13.0158 32.1506C8.99498 30.6277 8.87563 26.2951 8.87215 26.1112C8.86675 25.7914 9.12167 25.5276 9.44187 25.5222C9.75628 25.5176 10.0247 25.7713 10.0309 26.0908C10.0344 26.2503 10.1537 29.8274 13.4264 31.0668C13.7258 31.18 13.8764 31.5149 13.7632 31.8138C13.6752 32.046 13.455 32.1885 13.2209 32.1885Z" fill="white"/>
<path d="M16.8367 10.1027C16.6892 10.1027 16.5412 10.0467 16.4284 9.93432C16.2013 9.70914 16.2002 9.34181 16.4257 9.11508C18.552 6.97488 21.6196 5.74738 24.8421 5.74738C28.065 5.74738 31.1333 6.97488 33.2604 9.11508C33.486 9.3422 33.4848 9.70914 33.2581 9.93471C33.031 10.1599 32.6644 10.1591 32.4385 9.93239C30.5273 8.00925 27.7587 6.90651 24.8421 6.90651C21.9263 6.90651 19.1584 8.00925 17.2477 9.932C17.1345 10.0459 16.9854 10.1027 16.8367 10.1027Z" fill="white"/>
<path d="M30.2245 12.4713C30.0758 12.4713 29.9267 12.4145 29.8136 12.3002C28.5822 11.0611 26.7707 10.3508 24.8429 10.3508C22.9152 10.3508 21.1036 11.0611 19.8727 12.2998C19.6475 12.5273 19.2806 12.5281 19.0534 12.3025C18.8263 12.0769 18.8252 11.71 19.0507 11.4832C20.4976 10.0271 22.6085 9.19202 24.8422 9.19202C27.0766 9.19202 29.1879 10.0275 30.6355 11.4836C30.8611 11.7104 30.8599 12.0773 30.6328 12.3029C30.52 12.4153 30.3721 12.4713 30.2245 12.4713Z" fill="white"/>
<path d="M22.2287 14.7049C22.0681 14.7049 21.9085 14.6385 21.7942 14.5087C21.5825 14.2684 21.6057 13.9027 21.8456 13.691C22.6057 13.0209 23.698 12.6365 24.8433 12.6365C25.9452 12.6365 26.9719 12.9791 27.7343 13.6014C27.9823 13.8034 28.0194 14.1684 27.817 14.4164C27.6146 14.6643 27.2492 14.7014 27.002 14.499C26.4539 14.0518 25.6667 13.7953 24.8433 13.7953C23.9765 13.7953 23.1635 14.0742 22.6123 14.5601C22.5018 14.6574 22.3651 14.7049 22.2287 14.7049Z" fill="white"/>
<path d="M24.8916 38.6142H24.5579C24.2377 38.6142 23.9785 38.355 23.9785 38.0348C23.9785 37.7146 24.2377 37.4554 24.5579 37.4554H24.8912C25.2466 37.4554 25.4358 37.1005 25.4374 37.0966C26.459 35.1399 27.6915 35.0174 28.3539 34.9518C28.447 34.9425 28.5745 34.9298 28.6131 34.9162C28.6788 34.8934 28.7139 34.7165 28.7135 34.632C28.7135 34.4728 28.5115 34.367 28.5096 34.3658C27.5923 33.8672 25.3594 33.8023 24.5764 33.8158C24.5726 33.8158 24.5687 33.8158 24.5648 33.8158C24.2504 33.8158 23.992 33.564 23.9859 33.248C23.9797 32.9282 24.2338 32.6636 24.5536 32.6574C24.8715 32.6505 27.6946 32.6161 29.021 33.326C29.3466 33.4832 29.8723 33.9209 29.8723 34.6204C29.8854 35.0066 29.7159 35.7602 28.994 36.0113C28.8259 36.0696 28.6525 36.087 28.4687 36.1051C27.902 36.1615 27.1967 36.2314 26.4721 37.6188C26.2964 37.9792 25.7564 38.6142 24.8916 38.6142Z" fill="white"/>
<path d="M20.4974 35.1997C20.207 35.1997 19.9563 34.9815 19.9227 34.6856C19.9034 34.516 19.4777 30.4855 21.7887 26.1286C21.9385 25.8459 22.2892 25.7381 22.572 25.888C22.8547 26.0379 22.9625 26.3886 22.8126 26.6713C20.6681 30.715 21.0698 34.5168 21.0741 34.5547C21.1104 34.8726 20.8817 35.1595 20.5639 35.1958C20.5411 35.1986 20.5191 35.1997 20.4974 35.1997Z" fill="white"/>
<path d="M19.9327 42.7528C19.7991 42.7528 19.6654 42.7486 19.5306 42.7401C16.4287 42.5458 14.0463 40.136 14.2193 37.3681C14.4008 34.457 16.0227 33.5794 17.3514 33.3562C17.6677 33.3025 17.9659 33.5157 18.0188 33.8313C18.0721 34.1468 17.8593 34.4458 17.5438 34.4987C16.6828 34.6435 15.521 35.1063 15.3757 37.4404C15.2425 39.5709 17.1386 41.4292 19.6029 41.5837C20.8076 41.6594 21.9679 41.3191 22.862 40.6262C23.7342 39.9502 24.2494 39.0174 24.3128 37.9997C24.3329 37.6799 24.6106 37.4365 24.9269 37.4574C25.2463 37.4775 25.4893 37.7525 25.4692 38.0715C25.3846 39.4265 24.7106 40.659 23.5716 41.5416C22.5557 42.3295 21.2765 42.7528 19.9327 42.7528Z" fill="white"/>
<path d="M29.4774 47.7405C29.1816 47.7405 28.9293 47.5153 28.9011 47.2152C28.8714 46.8965 29.1055 46.6142 29.4241 46.5844C34.983 46.0657 38.2426 44.0804 39.9981 42.506C41.893 40.8069 42.4944 39.2067 42.5002 39.1904C42.5748 38.9873 42.7567 38.8417 42.971 38.8142C43.1835 38.7864 43.3979 38.8799 43.5211 39.0583C43.7138 39.3368 43.917 39.6281 44.107 39.8961C44.2244 39.3944 44.4002 38.7154 44.6593 37.7841C45.4929 34.7891 45.3642 31.0943 45.3627 31.0572C45.3588 30.9568 45.3812 30.8567 45.4276 30.7675C45.6369 30.3658 45.9548 30.2727 46.1259 30.253C46.6219 30.1943 46.9896 30.5786 47.0916 30.6972C47.4512 31.1464 47.9139 31.4206 48.3337 31.5879C47.725 29.6964 47.6929 26.6142 47.6945 25.8675C47.4824 19.7474 45.0483 14.0672 40.8413 9.89458C36.6304 5.71845 31.005 3.41833 25.0027 3.41833C24.6825 3.41833 24.4233 3.15916 24.4233 2.83896C24.4233 2.51876 24.6825 2.25958 25.0027 2.25958C31.3129 2.25958 37.2279 4.67905 41.6578 9.07225C46.0753 13.4531 48.6308 19.4114 48.8532 25.849C48.8482 28.4037 49.2109 31.4651 49.8053 31.9935C49.988 32.1557 50.0491 32.4156 49.9583 32.6424C49.8671 32.8691 49.6423 33.0089 49.399 33.0054C49.3245 33.0027 47.7115 32.9293 46.5311 31.7984C46.5265 33.0919 46.428 35.7509 45.7756 38.0943C45.0665 40.6427 45.0413 41.1178 45.0502 41.2028C45.0514 41.2071 45.0603 41.248 45.0614 41.2522C45.1155 41.5218 44.9718 41.8007 44.7188 41.9085C44.2932 42.0896 44.214 42.08 43.1313 40.5288C42.0012 42.4994 38.5048 46.9 29.5319 47.7378C29.5133 47.7397 29.4952 47.7405 29.4774 47.7405Z" fill="white"/>
<path d="M44.4489 14.0159C44.17 14.0159 43.9244 13.8142 43.8776 13.53C43.8263 13.214 44.0403 12.9162 44.3562 12.8648C44.9259 12.7718 45.4694 12.5748 45.9723 12.2789C48.1256 11.0112 48.7629 8.2341 47.4226 5.956C46.0797 3.67519 43.4161 2.92664 41.2264 4.2144C40.1245 4.8633 39.352 5.90463 39.0522 7.14719C38.9773 7.45812 38.6652 7.65086 38.3531 7.57438C38.0422 7.49945 37.851 7.1862 37.9259 6.87527C38.3002 5.32525 39.2635 4.02552 40.6386 3.21594C43.352 1.61957 46.7707 2.56473 48.4211 5.36813C50.0909 8.20629 49.2732 11.6802 46.5598 13.2774C45.9329 13.6462 45.2542 13.8923 44.5428 14.0085C44.5115 14.0135 44.4802 14.0159 44.4489 14.0159Z" fill="white"/>
<path d="M43.0825 11.4361C43.057 11.4361 43.0312 11.4357 43.0057 11.435C42.6858 11.4261 42.434 11.1596 42.4425 10.8394C42.4514 10.5192 42.7264 10.2681 43.0381 10.2762C43.4367 10.2835 43.8257 10.141 44.1192 9.86331C44.4128 9.5856 44.5808 9.21055 44.592 8.80653C44.6155 7.97262 43.9562 7.27544 43.1223 7.25226C42.2892 7.22793 41.5912 7.88842 41.5676 8.72233C41.5588 9.04253 41.2853 9.29282 40.9721 9.28548C40.6522 9.2766 40.4004 9.01008 40.4089 8.68988C40.4502 7.2175 41.6843 6.05257 43.154 6.0939C44.6267 6.13523 45.7913 7.36659 45.75 8.83898C45.7303 9.55199 45.4336 10.2148 44.9153 10.7053C44.4159 11.1785 43.7673 11.4361 43.0825 11.4361Z" fill="white"/>
<path d="M34.0732 25.37C32.6533 25.37 31.498 24.2148 31.498 22.7949C31.498 21.3751 32.6533 20.2198 34.0732 20.2198C34.7078 20.2198 35.3177 20.4531 35.7904 20.876C36.3358 21.3642 36.6483 22.0637 36.6483 22.7949C36.6483 24.2148 35.493 25.37 34.0732 25.37ZM34.0732 21.3785C33.2922 21.3785 32.6568 22.0139 32.6568 22.7949C32.6568 23.5759 33.2922 24.2113 34.0732 24.2113C34.8542 24.2113 35.4896 23.5759 35.4896 22.7949C35.4896 22.3924 35.3177 22.0077 35.0176 21.7393C34.7576 21.5064 34.4223 21.3785 34.0732 21.3785Z" fill="white"/>
<path d="M31.659 26.3357C31.5239 26.3357 31.3887 26.2889 31.279 26.1931C31.0376 25.983 31.0125 25.6172 31.2226 25.3758L32.3906 24.0336C32.6007 23.7922 32.9669 23.7671 33.2079 23.9772C33.4493 24.1873 33.4744 24.5531 33.2643 24.7945L32.0963 26.1367C31.9816 26.2681 31.8205 26.3357 31.659 26.3357Z" fill="white"/>
<path d="M35.4898 21.9332C35.355 21.9332 35.2195 21.8865 35.1098 21.7911C34.8684 21.5809 34.8429 21.2152 35.053 20.9738L36.4037 19.421C36.6138 19.1796 36.98 19.1541 37.221 19.3643C37.4624 19.5744 37.4879 19.9402 37.2778 20.1816L35.9271 21.7343C35.8127 21.866 35.6517 21.9332 35.4898 21.9332Z" fill="white"/>
<path d="M35.4247 38.3419C35.1652 38.3419 34.9288 38.1661 34.8631 37.9027C34.7855 37.5922 34.9744 37.2778 35.2845 37.2001C35.626 37.1148 36.0462 37.034 36.1745 37.0097C42.5862 34.9201 44.181 28.6435 44.1969 28.5802C46.103 20.7289 40.9369 17.4628 40.8844 17.4307C40.6113 17.2635 40.5256 16.907 40.6928 16.6343C40.8597 16.3612 41.2162 16.2751 41.4892 16.4427C41.5487 16.479 47.4259 20.1912 45.3224 28.854C45.2532 29.1387 43.5468 35.849 36.495 38.124C36.4711 38.1318 36.4468 38.1379 36.422 38.1422C36.417 38.143 35.9288 38.2333 35.5653 38.3241C35.5186 38.3365 35.4711 38.3419 35.4247 38.3419Z" fill="white"/>
<path d="M37.3221 34.7316C37.105 34.7316 36.8969 34.6091 36.798 34.3998C36.6612 34.1105 36.7845 33.7652 37.0738 33.6281C42.3658 31.1232 42.1564 25.0943 42.1537 25.0336C42.1394 24.7142 42.387 24.4434 42.7064 24.4288C43.0324 24.4129 43.297 24.6621 43.3113 24.9815C43.3144 25.0498 43.5504 31.8448 37.5693 34.6756C37.4897 34.7134 37.4052 34.7316 37.3221 34.7316Z" fill="white"/>
<path d="M36.7788 32.1885C36.5447 32.1885 36.3245 32.046 36.2369 31.8142C36.1237 31.5153 36.2743 31.1804 36.5737 31.0672C39.8676 29.8196 39.9684 26.129 39.9688 26.0919C39.9746 25.7717 40.2446 25.5288 40.5578 25.5222C40.878 25.5276 41.1326 25.7914 41.1275 26.1112C41.1245 26.2951 41.0047 30.6273 36.9839 32.1506C36.9163 32.1761 36.8471 32.1885 36.7788 32.1885Z" fill="white"/>
<path d="M30.0678 42.7528C28.7241 42.7528 27.4448 42.3295 26.4286 41.5419C25.2895 40.659 24.6159 39.4268 24.5309 38.0719C24.5109 37.7524 24.7538 37.4774 25.0732 37.4577C25.3907 37.4376 25.6677 37.6806 25.6874 38C25.7511 39.0178 26.2664 39.9506 27.1381 40.6265C28.0327 41.3194 29.1937 41.6609 30.3973 41.584C32.8616 41.4295 34.7581 39.5713 34.6244 37.4407C34.4792 35.1062 33.3173 34.6435 32.4564 34.4987C32.1408 34.4457 31.928 34.1468 31.9813 33.8312C32.0342 33.5157 32.334 33.3036 32.6487 33.3561C33.9774 33.5798 35.5997 34.4573 35.7808 37.3685C35.9539 40.1364 33.5715 42.5462 30.4695 42.7404C30.3355 42.7486 30.2011 42.7528 30.0678 42.7528Z" fill="white"/>
<path d="M32.9506 10.1027C32.8015 10.1027 32.6528 10.046 32.5396 9.93164C30.6292 8.0085 27.8613 6.90614 24.9452 6.90614C22.0286 6.90614 19.2596 8.00889 17.3488 9.93202C17.1232 10.1591 16.7567 10.1599 16.5292 9.93434C16.3024 9.70877 16.3013 9.34183 16.5269 9.11472C18.6539 6.97451 21.7223 5.74701 24.9452 5.74701C28.1673 5.74701 31.2352 6.97451 33.3615 9.11472C33.5871 9.34145 33.5859 9.70877 33.3588 9.93395C33.2457 10.0467 33.0981 10.1027 32.9506 10.1027Z" fill="white"/>
<path d="M19.5628 12.4713C19.4152 12.4713 19.2673 12.4153 19.1545 12.3029C18.9274 12.0773 18.9262 11.7104 19.1518 11.4836C20.5991 10.0271 22.7099 9.19202 24.944 9.19202C27.1785 9.19202 29.2893 10.0271 30.7366 11.4832C30.9622 11.71 30.961 12.0769 30.7339 12.3025C30.5072 12.5281 30.1398 12.5269 29.9147 12.2998C28.6837 11.0611 26.8726 10.3508 24.9452 10.3508C23.0166 10.3508 21.2051 11.0615 19.9737 12.3002C19.8606 12.4145 19.7115 12.4713 19.5628 12.4713Z" fill="white"/>
<path d="M27.5582 14.7049C27.4219 14.7049 27.2852 14.657 27.1751 14.5601C26.6239 14.0738 25.8105 13.7953 24.9441 13.7953C24.1206 13.7953 23.3338 14.0518 22.7854 14.499C22.537 14.7014 22.1724 14.6643 21.9704 14.4164C21.768 14.1684 21.8051 13.8034 22.053 13.6014C22.8159 12.9791 23.8425 12.6365 24.9441 12.6365C26.089 12.6365 27.1817 13.0209 27.9418 13.691C28.1817 13.9027 28.2048 14.2688 27.9932 14.5087C27.8785 14.6389 27.7189 14.7049 27.5582 14.7049Z" fill="white"/>
<path d="M25.2294 38.6142H24.8961C24.0309 38.6142 23.4909 37.9792 23.3082 37.6046C22.5913 36.2314 21.8856 36.1615 21.319 36.1051C21.1352 36.087 20.9617 36.0696 20.7937 36.0113C20.0718 35.7606 19.9023 35.007 19.9158 34.6011C19.9154 33.9209 20.4411 33.4833 20.7667 33.3264C22.0931 32.6169 24.9154 32.6505 25.234 32.6579C25.5539 32.664 25.808 32.9286 25.8018 33.2484C25.7956 33.5682 25.5388 33.8398 25.2113 33.8162C24.4268 33.8012 22.1958 33.8676 21.3055 34.3527C21.2939 34.3593 21.2819 34.3651 21.2696 34.3705C21.2703 34.3705 21.0741 34.4752 21.0741 34.6204C21.0737 34.7169 21.1085 34.8939 21.1742 34.9166C21.2132 34.9302 21.3406 34.9429 21.4337 34.9522C22.0961 35.0178 23.3287 35.1403 24.343 37.0827C24.3545 37.1051 24.5427 37.4558 24.8965 37.4558H25.2298C25.55 37.4558 25.8092 37.715 25.8092 38.0352C25.8092 38.3554 25.5492 38.6142 25.2294 38.6142Z" fill="white"/>
<path d="M29.3385 35.1997C29.3165 35.1997 29.2945 35.1986 29.2725 35.1959C28.955 35.1599 28.7263 34.8733 28.7622 34.5558C28.7665 34.5176 29.1593 30.698 27.0241 26.6713C26.8743 26.389 26.982 26.0379 27.2648 25.888C27.5471 25.7382 27.8982 25.8455 28.0481 26.1287C30.359 30.4859 29.9333 34.5161 29.914 34.6856C29.88 34.9815 29.6294 35.1997 29.3385 35.1997Z" fill="white"/>
<path d="M24.7947 46.7748C19.8971 46.7748 16.9731 44.8617 16.9731 41.657C16.9731 41.3368 17.2323 41.0776 17.5525 41.0776C17.8727 41.0776 18.1319 41.3368 18.1319 41.657C18.1319 44.173 20.5606 45.6161 24.7947 45.6161C27.1632 45.6161 31.1767 45.1456 31.4436 41.9961C31.4706 41.6775 31.7487 41.4396 32.0697 41.4677C32.3888 41.4948 32.6251 41.7752 32.5981 42.0939C32.4502 43.842 31.2393 46.7748 24.7947 46.7748Z" fill="white"/>
</g>
<defs>
<clipPath id="clip0">
<rect width="50" height="50" fill="white"/>
</clipPath>
</defs>
</svg>
