<svg width="50" height="50" viewBox="0 0 50 50" fill="none" xmlns="http://www.w3.org/2000/svg">
<path d="M16.2621 24.1667V25.8334C16.2621 26.7526 15.5146 27.5001 14.5954 27.5001H12.0954C11.1763 27.5001 10.4287 26.7527 10.4287 25.8334V13.3334C10.4287 12.4143 11.1762 11.6667 12.0954 11.6667H14.5954C15.2796 11.6667 15.8937 12.0859 16.1437 12.7176L16.2721 13.4735L17.9154 13.1943L17.7737 12.361C17.7654 12.3135 17.7537 12.2676 17.7379 12.2226C17.2687 10.8926 16.0054 10.0001 14.5954 10.0001H14.5945H12.0945C10.2561 10.0001 8.76123 11.4951 8.76123 13.3334V25.8334C8.76123 27.6718 10.2562 29.1667 12.0945 29.1667H14.5945C16.4329 29.1667 17.9278 27.6717 17.9287 25.8334V24.1667H16.2621Z" fill="white"/>
<path d="M13.345 2.5C10.8175 2.5 8.76172 4.55586 8.76172 7.0833C8.76172 9.61074 10.8176 11.6666 13.345 11.6666C15.8725 11.6666 17.9283 9.61074 17.9283 7.0833C17.9283 4.55586 15.8726 2.5 13.345 2.5ZM13.345 10C11.7367 10 10.4283 8.6917 10.4283 7.0833C10.4283 5.475 11.7366 4.1666 13.345 4.1666C14.9533 4.1666 16.2617 5.4749 16.2617 7.0833C16.2617 8.6917 14.9533 10 13.345 10Z" fill="white"/>
<path d="M9.59482 17.5H7.76152C6.4749 17.5 5.42822 18.5467 5.42822 19.8333V23.5C5.42822 24.7866 6.4749 25.8333 7.76152 25.8333H9.59482C10.0548 25.8333 10.4281 25.4608 10.4281 25V18.3333C10.4281 17.8733 10.0548 17.5 9.59482 17.5ZM8.76152 24.1667H7.76152C7.39404 24.1667 7.09482 23.8676 7.09482 23.5V19.8333C7.09482 19.4658 7.39395 19.1666 7.76152 19.1666H8.76152V24.1667Z" fill="white"/>
<path d="M23.7612 10H20.4279V11.6667H23.7612C25.1395 11.6667 26.2612 12.7884 26.2612 14.1667V28.3334H17.9279V22.5H16.2612V29.1667C16.2612 29.6275 16.6346 30 17.0945 30H27.0945C27.5554 30 27.9278 29.6275 27.9278 29.1667V14.1667C27.9278 11.8691 26.0587 10 23.7612 10Z" fill="white"/>
<path d="M26.958 3.11415L25.3497 3.55253C25.4039 3.75087 25.4306 3.95507 25.4289 4.16669V7.49999C25.4289 8.87831 24.3073 9.99999 22.929 9.99999C21.5506 9.99999 20.429 8.87831 20.429 7.49999V4.15917C20.4273 3.95331 20.454 3.74999 20.5073 3.55331L18.8998 3.11249C18.8048 3.45751 18.7581 3.81503 18.7614 4.16669V7.49999C18.7614 9.79745 20.6305 11.6667 22.9281 11.6667C25.2255 11.6667 27.0948 9.79755 27.0955 7.49999V4.17411C27.0989 3.81669 27.0522 3.45995 26.958 3.11415Z" fill="white"/>
<path d="M27.9279 0H22.0945C20.2562 0 18.7612 1.49502 18.7612 3.3333V6.6666C18.7612 7.00322 18.9646 7.30742 19.2754 7.43662C19.3787 7.4791 19.487 7.4999 19.5945 7.4999C19.8112 7.4999 20.0245 7.41494 20.1837 7.25576L23.2729 4.1666H25.4279C27.2662 4.1666 28.7612 2.67158 28.7612 0.833301C28.7613 0.37334 28.3887 0 27.9279 0ZM25.4279 2.5H22.9278C22.707 2.5 22.4953 2.5875 22.3387 2.74414L20.4278 4.65498V3.3333C20.4278 2.41416 21.1753 1.6666 22.0945 1.6666H26.8704C26.5829 2.16416 26.0438 2.5 25.4279 2.5Z" fill="white"/>
<path d="M35.3401 43.7933L27.8401 28.7933L26.3493 29.5391L33.4768 43.7933L31.5976 44.7325L24.9467 32.9408C24.5326 32.1641 23.7267 31.6758 22.8368 31.6667C21.5084 31.6667 20.4285 32.7467 20.4285 34.075V37.77C20.4226 38.7766 19.8193 39.6766 18.8893 40.065L11.6585 43.0967L10.7301 41.2408L17.4335 38.2616C17.7343 38.1274 17.9285 37.83 17.9285 37.5V29.1667H16.2618V36.9592L9.25679 40.0717C9.04927 40.1641 8.88765 40.3375 8.81099 40.5516C8.73433 40.7658 8.74849 41.0025 8.85015 41.2058L10.5168 44.5391C10.7127 44.9316 11.1777 45.1033 11.5843 44.9349L19.5327 41.6024C21.0801 40.9566 22.086 39.4566 22.0952 37.7749V34.0749C22.0952 33.6657 22.4277 33.3332 22.8285 33.3332C23.1009 33.3357 23.3485 33.4857 23.486 33.7424L30.536 46.2424C30.6893 46.5124 30.9702 46.6665 31.2626 46.6665C31.3885 46.6665 31.5152 46.6382 31.6343 46.5781L34.9676 44.9114C35.3792 44.7058 35.5459 44.205 35.3401 43.7933Z" fill="white"/>
<path d="M13.2973 46.3857L10.339 40.4607C10.2406 40.2633 10.0673 40.1124 9.85733 40.0424C9.64737 39.9707 9.41817 39.9882 9.22071 40.0874L5.88741 41.7541C5.68995 41.8532 5.53995 42.0265 5.46994 42.2357C5.39992 42.4457 5.41661 42.6758 5.51574 42.8732L8.39073 48.6132C8.81641 49.4682 9.67305 49.9998 10.628 49.9998H11.0613C12.0163 49.9998 12.8747 49.4673 13.2979 48.6116C13.6447 47.9149 13.6447 47.0831 13.2973 46.3857ZM11.8072 47.8706C11.6655 48.1556 11.3797 48.3331 11.0614 48.3331H10.6281C10.3106 48.3331 10.0248 48.1556 9.88311 47.8706C9.88311 47.8698 9.88233 47.869 9.88233 47.8673L7.38067 42.8723L9.22237 41.9507L11.8073 47.1289C11.923 47.3615 11.923 47.6382 11.8072 47.8706Z" fill="white"/>
<path d="M39.5059 43.7916C38.8392 42.4657 37.2176 41.9241 35.8884 42.5874L30.8884 45.0874C30.4768 45.2933 30.3101 45.7941 30.5159 46.2058L32.1826 49.5391C32.3293 49.8316 32.6235 50 32.9293 50C33.0552 50 33.1819 49.9716 33.301 49.9116L38.301 47.4116C38.301 47.4116 38.3019 47.4107 38.3026 47.4107C39.6275 46.7449 40.1684 45.1233 39.5059 43.7916ZM37.555 45.9207L33.3008 48.0483L32.38 46.2058L36.6325 44.0791C37.14 43.8258 37.7617 44.0333 38.015 44.5374C38.2675 45.0449 38.0608 45.665 37.555 45.9207Z" fill="white"/>
<path d="M13.3452 5.83325C12.6561 5.83325 12.0952 6.39409 12.0952 7.08325C12.0952 7.77241 12.6561 8.33325 13.3452 8.33325C14.0344 8.33325 14.5952 7.77241 14.5952 7.08325C14.5952 6.39409 14.0344 5.83325 13.3452 5.83325ZM13.3452 7.49995C13.1152 7.49995 12.9285 7.31333 12.9285 7.08325C12.9285 6.85327 13.1151 6.66655 13.3452 6.66655C13.5752 6.66655 13.7619 6.85317 13.7619 7.08325C13.7619 7.31333 13.5752 7.49995 13.3452 7.49995Z" fill="white"/>
<path d="M39.2042 15.5493C39.1193 15.4368 39.0267 15.3309 38.9276 15.2318C38.3818 14.6893 37.6592 14.3918 36.8901 14.3918C36.8868 14.3918 36.8834 14.3918 36.8792 14.3918C36.1075 14.3943 35.3818 14.6976 34.8401 15.2434L31.3184 18.7651L27.7358 14.466L26.455 15.5327L30.6217 20.5327C30.7725 20.7127 30.9908 20.8211 31.225 20.8318C31.4575 20.841 31.6866 20.7543 31.8517 20.5885L36.0208 16.4201C36.2508 16.1885 36.5575 16.0593 36.8859 16.0585C36.8867 16.0585 36.8884 16.0585 36.8901 16.0585C37.2151 16.0585 37.5226 16.1844 37.7526 16.4135C37.7951 16.4559 37.8359 16.5018 37.8709 16.5493C38.236 17.0377 38.1876 17.7302 37.7568 18.1609L33.636 22.2817C32.976 22.9501 32.0601 23.3334 31.1185 23.3334C31.1152 23.3334 31.1159 23.3334 31.1085 23.3334C29.9177 23.3334 28.8151 22.7409 28.151 21.7409L27.7843 21.1992L26.4043 22.1342L26.7668 22.6683C27.7342 24.1293 29.3559 25.0001 31.1059 25.0001C31.1142 25.0001 31.1151 25.0001 31.1193 25.0001C32.5026 25.0001 33.8518 24.4359 34.8185 23.4559L38.9352 19.3392C39.9476 18.326 40.0634 16.6968 39.2042 15.5493Z" fill="white"/>
<path d="M25.2997 22.8151C25.1439 22.0542 24.7014 21.3993 24.0806 20.9892L19.4339 17.6475L23.1947 15.3517C23.2047 15.3467 23.2139 15.3401 23.2231 15.3342C23.2747 15.3 23.3247 15.2642 23.3756 15.225C23.9898 14.7526 24.3822 14.0692 24.4822 13.3009C24.5815 12.5325 24.3764 11.7717 23.9114 11.1676C22.9864 9.92676 21.2515 9.6292 19.9864 10.4759L13.8489 14.3059C12.7481 15.0401 12.0923 16.2693 12.0947 17.5892C12.0931 18.9134 12.7481 20.1417 13.8306 20.8634L20.8322 25.8176C21.328 26.1501 21.8905 26.3093 22.4473 26.3093C23.3356 26.3093 24.2098 25.9035 24.7773 25.141C24.8131 25.0935 24.8464 25.0468 24.8764 25.0009C25.3047 24.3526 25.4556 23.5759 25.2997 22.8151ZM23.444 24.1434C23.0489 24.6734 22.3081 24.8009 21.7765 24.4451L14.7739 19.4901C14.139 19.0658 13.7598 18.3575 13.7614 17.5901C13.7598 16.8259 14.1381 16.1176 14.7523 15.7068L20.8914 11.8759C21.1023 11.7351 21.3414 11.6667 21.5789 11.6667C21.9598 11.6667 22.3364 11.8426 22.5839 12.175C22.7848 12.4359 22.8723 12.76 22.8297 13.0867C22.7872 13.4125 22.6205 13.7034 22.3613 13.9026L17.4939 16.8801C17.2547 17.0259 17.1055 17.281 17.0947 17.5601C17.0848 17.8393 17.2148 18.1051 17.4414 18.2684L23.1356 22.3625C23.4122 22.5451 23.6014 22.825 23.6681 23.15C23.7339 23.475 23.6697 23.8059 23.444 24.1434Z" fill="white"/>
<path d="M22.2664 14.1162L19.6987 18.7661L21.1578 19.5717L23.7254 14.9219L22.2664 14.1162Z" fill="white"/>
<path d="M18.0137 22.9616L16.3472 26.2946L17.8378 27.0399L19.5043 23.7069L18.0137 22.9616Z" fill="white"/>
<path d="M17.0947 24.1667H9.59473V25.8334H17.0947V24.1667Z" fill="white"/>
<path d="M36.2387 13.1447L34.6162 13.522L42.9494 49.3568L44.5719 48.9794L36.2387 13.1447Z" fill="white"/>
<path d="M22.0949 10H12.9282V11.6667H22.0949V10Z" fill="white"/>
</svg>
