<svg width="15" height="15" viewBox="0 0 15 15" fill="none" xmlns="http://www.w3.org/2000/svg">
<path d="M14.7702 7.72959H0.229815C0.102957 7.72959 0 7.62663 0 7.49977C0 7.37291 0.102957 7.26996 0.229815 7.26996H14.7702C14.897 7.26996 15 7.37291 15 7.49977C15 7.62663 14.897 7.72959 14.7702 7.72959Z" fill="white"/>
<path d="M5.99219 13.4915C5.93335 13.4915 5.87452 13.469 5.82948 13.4244L0.0671059 7.66156C0.0243603 7.61836 0 7.55998 0 7.49885C0 7.43772 0.0243603 7.37935 0.0671059 7.33614L5.82994 1.57607C5.91957 1.48644 6.06527 1.48644 6.1549 1.57607C6.24452 1.6657 6.24452 1.8114 6.1549 1.90103L0.554773 7.49885L6.1549 13.099C6.24452 13.1886 6.24452 13.3343 6.1549 13.4239C6.10985 13.469 6.05102 13.4915 5.99219 13.4915Z" fill="white"/>
</svg>
