<svg width="15" height="15" viewBox="0 0 15 15" fill="none" xmlns="http://www.w3.org/2000/svg">
<path d="M14.7702 7.72959H0.229815C0.102957 7.72959 0 7.62663 0 7.49977C0 7.37291 0.102957 7.26996 0.229815 7.26996H14.7702C14.897 7.26996 15 7.37291 15 7.49977C15 7.62663 14.897 7.72959 14.7702 7.72959Z" fill="white"/>
<path d="M9.00776 13.4915C8.94893 13.4915 8.8901 13.469 8.84505 13.4244C8.75543 13.3348 8.75543 13.1891 8.84505 13.0994L14.4452 7.49931L8.84505 1.90103C8.75543 1.8114 8.75543 1.6657 8.84505 1.57607C8.93468 1.48644 9.08038 1.48644 9.17001 1.57607L14.9324 7.3366C14.9756 7.37981 14.9995 7.43818 14.9995 7.49931C14.9995 7.56044 14.9751 7.61882 14.9324 7.66202L9.17001 13.4239C9.12543 13.469 9.06659 13.4915 9.00776 13.4915Z" fill="white"/>
</svg>
